<svg xmlns="http://www.w3.org/2000/svg" version="1.1" viewBox="0 0 954.590436 861.880182">
  <defs>
    <style>
      .st0 {
        fill: #fff;
      }

      .st1 {
        fill: #192737;
      }

      .st2 {
        fill: #8d956c;
      }
    </style>
  </defs>
  <g>
    <path class="st0" d="M954.590201,174.23999h-175.889954c55.179993,74.190002,85.319946,164.820007,85.319946,257.76001,0,115.390015-44.929993,223.890015-126.529968,305.470032-81.600037,81.599976-190.100037,126.529968-305.48999,126.529968s-223.869995-44.929993-305.470032-126.529968C44.930228,655.890015.000235,547.390015.000235,432S44.930228,208.109985,126.530203,126.530029C208.13024,44.929993,316.61022,0,432.000235,0h522.589966v174.23999Z"/>
    <path class="st2" d="M954.590201,0H432.000235c-115.390015,0-223.869995,44.929993-305.470032,126.530029C44.930228,208.109985.000235,316.609985.000235,432s44.929993,223.890015,126.529968,305.470032c81.600037,81.599976,190.080017,126.529968,305.470032,126.529968s223.889954-44.929993,305.48999-126.529968c81.599976-81.580017,126.529968-190.080017,126.529968-305.470032,0-92.940002-30.139954-183.570007-85.319946-257.76001h175.889954V0ZM931.450247,151.100037h-201.350037l15.859985,18.98999c61.200012,73.269958,94.920044,166.279968,94.920044,261.909973,0,225.450012-183.429993,408.859985-408.880005,408.859985S23.140189,657.450012,23.140189,432,206.550223,23.140015,432.000235,23.140015h499.450012v127.960022Z"/>
    <path class="st1" d="M642.107855,539.537232c-18.570316,28.320588-34.683711,20.04607-64.600698,16.323689.131546,7.096436,3.804322,13.218387,4.663716,17.338503,2.059571,8.131616-7.01613,15.798185-15.790211,16.109365-9.100792,1.668743-21.68828-10.022767-28.125174-5.33978,6.162119,12.790436,17.02605,24.248984,6.693678,40.195468-11.135978,9.457925-26.538885-.016627-38.130474-2.154386-14.032435-.979637-43.509581,11.025778-46.887988-10.237563-1.142544-10.670312,2.45223-24.295086.888435-29.298717-.277267-2.675698-2.218341-13.531192-7.261489-12.941915-10.240288,5.012305,2.268776,18.678111-3.933201,25.776199-3.356116,11.926619-23.587158,11.556043-31.812862,4.273517-10.551151-9.97612-4.897024-40.050397-16.981037-26.809374-3.08491,4.769442-3.058847,10.927872-5.572657,15.237542-4.563858,10.350767-16.045789,7.872405-20.880543,3.221305-20.962571-28.798306-25.586416-33.238448-45.944209-55.841943-16.872836-12.071897-41.588708-6.895216-61.414419-10.023815-12.21482-2.219787-21.418847,8.336373-25.86458-9.611271-1.42476-2.885227.101549-7.77911,4.503487-7.760084,4.018142-.177809,20.957356-.060095,23.372222-.196344,5.05972,3.836094,9.487853.337112,15.896515.659045,20.932099-2.62692,20.243884,2.230544,40.444501-3.506361,16.945826-5.964093,34.741543-23.440285,42.881911-40.997717,4.91644-9.117411,21.123077-20.121926,31.545568-9.344683-.000693-.000339,10.644402,14.098197,10.644402,14.098197,6.356606-4.776595-.459463-14.850732,5.16204-22.340564,7.867429-5.564165,18.400124-1.457963,22.910289,2.456103,4.063351,2.217539,7.186923-.349581,11.268201-1.406239,13.180259-2.071215,8.100988,9.860201,10.289281,24.45937,10.728874-5.764953-5.981384-45.906144,23.374273-39.552967,30.505301,6.979032,58.919809-24.307029,71.399506-3.973409,3.486166,10.110008.581119,10.229592-3.346121,20.527141-1.300071,3.417893-1.673935,5.037756-3.454057,6.283863-2.482139,1.290329-13.687391,5.64247-7.440655,10.41395,13.635431,14.375083,25.091268-3.926253,37.489253-.623969,10.619955,3.605101,13.200154,9.413248,14.793663,16.697499.402606,8.815991-6.306651,14.122428-10.129882,22.643844,13.187107,7.787903,28.070072-1.791274,40.426671-1.030969,20.66897,1.497093,25.786373,25.857471,18.922645,36.277472Z"/>
    <path class="st1" d="M192.990225,339.580017c-3.609985-4.02002-8.220032-6.030029-13.809998-6.030029-5.700012,0-10.369995,2.01001-14.02002,6.030029-3.649963,4.029968-5.469971,9.650024-5.469971,16.869995,0,7.190002,1.820007,12.799988,5.449951,16.840027,3.640015,4.029968,8.27002,6.049988,13.890015,6.049988,5.670044,0,10.309998-2.01001,13.940002-6.030029,3.619995-4.029968,5.429993-9.649963,5.429993-16.859985,0-7.219971-1.799988-12.840027-5.409973-16.869995ZM85.960196,496.23999l4.050049,19.070007,23.649963-15.22998-27.700012-3.840027ZM138.840201,571.690002l-7.529968-16.25-17.679993,8.190002,7.039978,15.200012c1.960022,4.22998,4.049988,6.98999,6.27002,8.279968,2.209961,1.290039,4.959961,1.180054,8.22998-.339966,5.849976-2.710022,7.070007-7.73999,3.669983-15.080017ZM177.480216,632.609985c-3.51001-4.48999-7.969971-6.929993-13.390015-7.319946-5.409973-.400024-10.959961,1.629944-16.649963,6.079956-5.660034,4.429993-8.960022,9.320007-9.900024,14.670044-.940002,5.349976.330017,10.23999,3.789978,14.669983,3.5,4.459961,7.940002,6.880005,13.340027,7.26001,5.400024.369995,10.950012-1.670044,16.630005-6.119995,5.690002-4.450012,9-9.330017,9.940002-14.650024s-.309998-10.190002-3.76001-14.590027ZM187.070242,685.410034l14.329956,13.209961,10.48999-26.099976-24.819946,12.890015ZM364.960196,751.350037l-17.469971-3.930054-4.27002,19.02002,16.340027,3.669983c4.549988,1.02002,8.01001,1.050049,10.390015.070007,2.369995-.969971,3.949951-3.219971,4.73999-6.73999,1.409973-6.289978-1.830017-10.320007-9.730042-12.089966ZM412.000235,758.76001l-11.070007,25.679993,19.459961,1.169983-8.389954-26.849976ZM748.290213,509.210022l23.369995,15.349976,4.52002-18.959961-27.890015,3.609985ZM400.930228,784.440002l19.459961,1.169983-8.389954-26.849976-11.070007,25.679993ZM201.400198,698.619995l10.48999-26.099976-24.819946,12.890015,14.329956,13.209961ZM179.030203,379.340027c5.670044,0,10.309998-2.01001,13.940002-6.030029,3.619995-4.029968,5.429993-9.649963,5.429993-16.859985,0-7.219971-1.799988-12.840027-5.409973-16.869995-3.609985-4.02002-8.220032-6.030029-13.809998-6.030029-5.700012,0-10.369995,2.01001-14.02002,6.030029-3.649963,4.029968-5.469971,9.650024-5.469971,16.869995,0,7.190002,1.820007,12.799988,5.449951,16.840027,3.640015,4.029968,8.27002,6.049988,13.890015,6.049988ZM164.090201,625.290039c-5.409973-.400024-10.959961,1.629944-16.649963,6.079956-5.660034,4.429993-8.960022,9.320007-9.900024,14.670044-.940002,5.349976.330017,10.23999,3.789978,14.669983,3.5,4.459961,7.940002,6.880005,13.340027,7.26001,5.400024.369995,10.950012-1.670044,16.630005-6.119995,5.690002-4.450012,9-9.330017,9.940002-14.650024s-.309998-10.190002-3.76001-14.590027c-3.51001-4.48999-7.969971-6.929993-13.390015-7.319946Z"/>
  </g>
  <path class="st1" d="M931.450247,23.140015h-499.450012C206.550223,23.140015,23.140189,206.549988,23.140189,432s183.410034,408.859985,408.860046,408.859985,408.880005-183.409973,408.880005-408.859985c0-95.630005-33.720032-188.640015-94.920044-261.909973l-15.859985-18.98999h201.350037V23.140015ZM481.580191,56.450012l12.01001,28.710022,21.25-22.679993,8.980042,1.629944-27.76001,28.180054-4.280029,23.629944-7.390015-1.339966,4.290039-23.630005-16.080017-36.130005,8.97998,1.630005ZM421.300223,53l44.880005,1.410034-.210022,6.72998-18.75-.590027-1.570007,49.940002-7.539978-.23999,1.570007-49.940002-18.590027-.589966.210022-6.720032ZM409.470206,54.179993l4.01001,56.550049-7.52002.539978-4.009949-56.549988,7.519958-.540039ZM347.070242,70.059998c3.719971-6.070007,9.519958-9.849976,17.399963-11.339966,6.059998-1.140015,11.52002-.480042,16.390015,1.97998,4.880005,2.469971,8.090027,6.320007,9.630005,11.570007l-7.600037,1.429993c-.969971-3.460022-3.029968-5.969971-6.169983-7.530029-3.140015-1.559998-6.799988-1.939941-10.97998-1.149963-5.650024,1.059998-9.75,3.849976-12.309998,8.369995-2.559998,4.51001-3.160034,10.369995-1.790039,17.590027,1.360046,7.199951,4.040039,12.439941,8.040039,15.719971,4.01001,3.280029,8.809998,4.400024,14.409973,3.340027,4.360046-.830017,7.679993-2.559998,9.960022-5.190002,2.279968-2.640015,3.22998-5.960022,2.839966-9.980042l7.600037-1.440002c.580017,6.030029-.880005,11.059998-4.400024,15.080017-3.51001,4.02002-8.419983,6.630005-14.72998,7.820007-7.880005,1.48999-14.659973.089966-20.340027-4.210022-5.679993-4.289978-9.349976-10.849976-11.019958-19.700012-1.670044-8.839966-.650024-16.289978,3.070007-22.359985ZM216.140189,328.100037h38.25v6.72998h-30.75v17.549988h26.650024v6.72998h-26.650024v25.680054h-7.5v-56.690002ZM159.540213,335.179993c5.070007-5.369995,11.599976-8.049988,19.559998-8.049988,7.940002,0,14.440002,2.679993,19.48999,8.049988,5.059998,5.360046,7.580017,12.450012,7.580017,21.27002,0,8.809998-2.52002,15.900024-7.580017,21.26001-5.049988,5.369995-11.549988,8.049988-19.48999,8.049988-7.960022,0-14.48999-2.690002-19.559998-8.059998-5.080017-5.380005-7.619995-12.460022-7.619995-21.25,0-8.820007,2.539978-15.909973,7.619995-21.27002ZM56.910208,439.049988l56.580017-3.48999,2.359985,38.179993-6.719971.410034-1.890015-30.690002-17.52002,1.080017,1.630005,26.599976-6.710022.409973-1.639954-26.589966-25.630005,1.580017-.460022-7.490051ZM69.140189,528.720032l15.51001-10.02002-4.940002-23.219971-18.169983-2.550049-1.650024-7.75,59.980042,9.51001,1.679993,7.900024-50.650024,34.409973-1.76001-8.279968ZM74.810233,546.660034l53.829956-17.77002,2.370056,7.159973-53.840027,17.77002-2.359985-7.159973ZM119.500235,588.530029l-.140015.070007c.51001,4.109985-1.330017,8.269958-5.51001,12.47998l-11.619995,11.650024-3.409973-7.370056,11.47998-11.199951c2.029968-1.990051,3.349976-4.350037,3.960022-7.080017.609985-2.72998.309998-5.400024-.900024-8.02002l-5.840027-12.599976-22,10.200012-3.149963-6.809998,51.440002-23.830017,10.549988,22.77002c1.840027,3.97998,2.960022,7.409973,3.359985,10.289978.400024,2.880005-.269958,5.700012-2.01001,8.440002-1.75,2.73999-4.169983,4.830017-7.289978,6.27002-3.549988,1.649963-7,1.98999-10.340027,1.039978-3.339966-.950012-6.199951-3.049988-8.579956-6.299988ZM154.670218,675.109985c-7.340027-.669983-13.450012-4.129944-18.349976-10.389954-4.910034-6.27002-6.809998-13.059998-5.710022-20.380005,1.109985-7.309998,5.119995-13.670044,12.039978-19.090027,6.950012-5.440002,14.090027-7.809998,21.450012-7.109985,7.350037.690002,13.47998,4.179993,18.390015,10.450012,4.899963,6.25,6.789978,13.019958,5.679993,20.309998-1.109985,7.279968-5.130005,13.640015-12.080017,19.070007-6.940002,5.440002-14.079956,7.820007-21.419983,7.139954ZM192.13024,721.630005l6.859985-17.140015-17.460022-16.089966-16.299988,8.440002-5.830017-5.369995,54.429993-26.940002,5.940002,5.47998-21.409973,57.359985-6.22998-5.73999ZM237.140189,753.970032l-.829956-34.679993-12.130005,2.209961-11.01001,16.27002-6.210022-4.200012,31.75-46.969971,6.220032,4.209961-15.75,23.290039,38.649963-7.809998,8.400024,5.679993-32.710022,5.97998,1.820007,41.570007-8.200012-5.549988ZM309.500235,745.359985l-6.600037-3.129944c2.26001-6.52002-.51001-11.620056-8.320007-15.320007-3.769958-1.790039-7.029968-2.470032-9.779968-2.030029-2.73999.440002-4.679993,1.830017-5.789978,4.190002-1.02002,2.140015-.950012,4.140015.209961,6,1.160034,1.859985,3.780029,4.380005,7.859985,7.539978,4.080017,3.160034,7.220032,5.860046,9.440002,8.110046,2.210022,2.25,3.790039,4.859985,4.720032,7.820007.929993,2.969971.580017,6.190002-1.070007,9.659973-2.090027,4.400024-5.570007,7.22998-10.460022,8.47998-4.889954,1.25-10.149963.540039-15.789978-2.130005-7.219971-3.429993-11.849976-7.609985-13.890015-12.539978-2.039978-4.929993-1.950012-9.97998.27002-15.150024l6.539978,3.100037c-1.469971,3.97998-1.219971,7.559998.75,10.72998,1.960022,3.169983,4.950012,5.710022,8.950012,7.609985,3.799988,1.800049,7.22998,2.470032,10.289978,2.01001,3.050049-.469971,5.220032-2.039978,6.490051-4.719971,1.329956-2.809998,1.109985-5.429993-.690002-7.850037-1.790039-2.419983-5.320007-5.639954-10.590027-9.669983-5.26001-4.02002-8.650024-7.73999-10.150024-11.169983-1.5-3.419983-1.379944-6.970032.370056-10.650024,1.959961-4.149963,5.22998-6.76001,9.809998-7.839966,4.579956-1.090027,9.619995-.320007,15.119995,2.279968,5.769958,2.73999,9.799988,6.290039,12.070007,10.650024,2.269958,4.359985,2.349976,9.029968.23999,14.019958ZM382.240225,765.140015c-.859985,3.820007-2.690002,6.77002-5.47998,8.830017-2.790039,2.070007-6.190002,3.059998-10.220032,2.97998l-.029968.150024c3.569946,2.099976,5.75,6.089966,6.549988,11.97998l2.159973,16.299988-7.919983-1.779968-1.900024-15.930054c-.339966-2.819946-1.409973-5.309998-3.199951-7.449951-1.790039-2.150024-4.090027-3.540039-6.910034-4.170044l-13.539978-3.039978-5.320007,23.650024-7.320007-1.640015,12.429993-55.320007,24.47998,5.5c4.280029.960022,7.680054,2.169983,10.210022,3.609985,2.530029,1.440002,4.349976,3.679993,5.470032,6.730042,1.109985,3.049988,1.289978,6.25.539978,9.599976ZM427.770194,809.290039l-5.539978-17.610046-23.700012-1.409973-7.279968,16.839966-7.910034-.469971,25.110046-55.299988,8.069946.47998,19.700012,57.97998-8.450012-.509949ZM483.740225,805.549988l-34.030029-41.539978,4.480042,44.52002-7.080017.709961-5.679993-56.409973,7.619995-.76001,34.029968,41.539978-4.47998-44.519958,7.119995-.710022,5.679993,56.400024-7.659973.769958ZM545.810233,787.230042c-3.179993,4.289978-7.859985,7.289978-14.049988,8.98999-7.730042,2.119995-14.600037,1.279968-20.610046-2.540039s-10.199951-10.059998-12.589966-18.73999c-2.380005-8.679993-1.960022-16.190002,1.25-22.539978,3.219971-6.350037,8.690002-10.590027,16.419983-12.710022,5.950012-1.630005,11.440002-1.419983,16.5.640015s8.570007,5.640015,10.530029,10.73999l-7.460022,2.049988c-1.23999-3.369995-3.5-5.709961-6.75-7.01001-3.26001-1.289978-6.940002-1.379944-11.039978-.25-5.550049,1.52002-9.410034,4.630005-11.590027,9.340027-2.190002,4.700012-2.309998,10.590027-.359985,17.679993,1.940002,7.059998,5.039978,12.059998,9.299988,15.01001,4.25,2.950012,9.130005,3.669983,14.630005,2.159973,4.27002-1.169983,7.440002-3.169983,9.5-5.97998s2.73999-6.200012,2.02002-10.179993l7.459961-2.049988c1.070007,5.959961.02002,11.089966-3.159973,15.390015ZM601.480216,768.190002l-11.22998-24.200012-26.730042,12.410034,11.240051,24.200012-6.809998,3.159973-23.870056-51.419983,6.800049-3.160034,9.809998,21.110046,26.719971-12.400024-9.799988-21.119995,6.840027-3.179993,23.869995,51.429993-6.840027,3.169983ZM432.000235,692.679993c-139.860046,0-254.340027-110.719971-260.429993-249.109985h153.799988v-52.830017c4.859985-2.209961,8.380005-3.899963,10.25-4.969971.630005-.359985,2.869995-1.660034,4.23999-.799988,3.380005,5.339966,10.330017,7.5,16.820007,9.039978,1.890015.799988,8.190002,3.23999,14.98999.659973,9.150024-2.909973,17.780029-19.25,26.419983-18.689941,5.119995,2.539978,6.869995,7.349976,10.75,11.129944,16.080017,8.870056,17.660034-6.629944,18.090027-18.25,1.159973-7.599976,11.859985-14.579956,17.72998-6.22998,6.210022,7.900024,15.02002,31.630005,24.169983,32.650024,10.240051.159973,12.730042-7.230042,13-12.320007,1.030029-9.440002-3.469971-16.720032,5.030029-25.580017,10.27002-6.97998,23.529968-.349976,32.940002-1.119995,10.890015.320007,16.369995.47998,20.159973-1.130005,11.900024-4.339966,14.150024,3.47998,7.730042,12.039978-5.900024,6.790039-12.220032,34.860046,8.73999,34.780029,10.48999-1.960022,16.669983-8.080017,26.039978-12.099976,5.900024-1.27002,10.720032,3.929993,8.900024,8.609985-2.720032,6.779968-11.710022,13.830017-8.609985,21.580017,3.519958,4.199951,11.879944,3.940002,13.949951,3.339966,4.860046-.809998,10.410034-2.48999,20.619995-1.399963,2.670044.319946,6.530029,1.049988,11.050049,2.809998,22.579956,15.690002,38.269958,4.869995,43.759949-19.650024,1.860046-11.059998,1.850037-19.080017-5.339966-25.440002-1.660034-.97998-9.679993-9.130005-15.200012-9.200012-9.01001.580017-28.419983,12.460022-34.200012,4.820007-2.549988-2.950012-1.839966-4.919983,1.119995-7.940002,2.720032-6.899963,7.860046-15.330017,5.860046-23.440002-2.730042-6.899963-11.100037-11.559998-17.950012-8.73999-7.01001,1.309998-17.540039,9.950012-23.669983,3.909973-.830017-13.079956,12.409973-21.75,12.549988-32.929993-1.460022-8.099976-7.890015-11.97998-14.549988-14.079956-12.02002-2.27002-12.900024,12.799988-26.840027,10.519958-12.289978-3.639954-34.570007-13-38.5-14.149963-8.789978-5.309998-14.690002,10.630005-15.280029,11.339966-5.159973,13.220032-.939941,13.200012-7.349976,23.820007-1.710022,2.429993-3.169983,4.630005-5.47998,2.809998-6.210022-4.97998-3.840027-21.76001-20.170044-26.330017-7.199951-1.690002-15.189941.890015-19.509949,12.230042-4.820007,5.669983-1.25,19.269958-8.900024,20.700012-8.219971.589966-6.5-19.570007-23.659973-15.800049-3.610046.950012-7.590027,6-9.059998,7.860046-1.870056,2.759949-7.100037,8.529968-20.170044,20.779968-9.429993,7.470032-16.929993,16.809998-27.289978,22.97998-5.320007,1.170044-3.840027-1.529968-10.539978-1.339966-7.030029,1.390015-19.920044,1.309998-22.640015,1.159973v-99.369995h-97.070007c49.309998-61.72998,123.929993-97.98999,203.700012-97.98999,12.820007,0,25.719971.940002,38.329956,2.789978,126.76001,18.680054,222.350037,129.540039,222.350037,257.890015,0,143.73999-116.940002,260.679993-260.679993,260.679993ZM649.580191,719.710022c-10.019958,0-18.149963-8.140015-18.149963-18.160034,0-10.019958,8.130005-18.159973,18.149963-18.159973,10.030029,0,18.160034,8.140015,18.160034,18.159973,0,10.02002-8.130005,18.160034-18.160034,18.160034ZM719.710196,673.090027l-38.709961-31.590027-11.76001,14.410034-5.210022-4.25,28.390015-34.790039,5.210022,4.26001-11.860046,14.530029,38.710022,31.589966-4.77002,5.840027ZM743.240225,642.609985l-48.619995-29.159973,21.059998-35.119995,5.77002,3.460022-17.200012,28.690002,14.859985,8.909973,16.090027-26.830017,5.769958,3.460022-16.089966,26.830017,16.449951,9.859985,17.880005-29.809998,5.77002,3.459961-21.73999,36.25ZM747.990225,459.669983c.51001-6.379944,2.399963-11.399963,5.659973-15.069946,3.27002-3.670044,7.610046-5.410034,13.030029-5.210022l-.580017,7.289978c-6.899963.200012-10.690002,4.600037-11.380005,13.210022-.330017,4.159973.200012,7.450012,1.590027,9.859985,1.380005,2.419983,3.369995,3.730042,5.969971,3.929993,2.359985.190002,4.210022-.589966,5.540039-2.329956,1.329956-1.740051,2.73999-5.080017,4.25-10.02002,1.5-4.940002,2.909973-8.840027,4.22998-11.710022,1.309998-2.869995,3.190002-5.269958,5.630005-7.190002,2.450012-1.929993,5.580017-2.73999,9.409973-2.440002,4.860046.390015,8.73999,2.650024,11.640015,6.77002,2.909973,4.119995,4.109985,9.299988,3.619995,15.52002-.640015,7.959961-2.899963,13.779968-6.779968,17.440002-3.890015,3.659973-8.640015,5.369995-14.26001,5.130005l.570007-7.210022c4.25-.049988,7.5-1.559998,9.769958-4.52002,2.27002-2.959961,3.570007-6.649963,3.929993-11.070007.330017-4.190002-.259949-7.630005-1.779968-10.329956-1.52002-2.690002-3.76001-4.160034-6.710022-4.390015-3.109985-.25-5.47998.890015-7.099976,3.429993-1.630005,2.530029-3.380005,6.97998-5.27002,13.330017-1.890015,6.359985-4.169983,10.839966-6.839966,13.459961-2.660034,2.619995-6.02002,3.77002-10.090027,3.450012-4.570007-.369995-8.179993-2.5-10.809998-6.390015-2.640015-3.899963-3.719971-8.879944-3.23999-14.940002ZM742.240225,503.549988l60.51001-9.349976-1.960022,8.23999-18.299988,2.390015-5.51001,23.099976,15.330017,10.100037-1.840027,7.709961-50.099976-34.329956,1.869995-7.860046ZM732.210196,539.290039l3.460022-8.480042,17.400024,28.369995,35.899963-8.929993-3.47998,8.52002-28.580017,6.450012,15.850037,24.699951-3.480042,8.52002-19.399963-31.450012-32.26001,8,3.469971-8.48999,24.950012-5.640015-13.830017-21.569946Z"/>
</svg>
